<svg width="25" height="26" viewBox="0 0 25 26" fill="none" xmlns="http://www.w3.org/2000/svg">
<path d="M10.4897 3.56255L3.27091 9.3438C2.45841 9.98963 1.93757 11.3542 2.11466 12.375L3.50007 20.6667C3.75007 22.1459 5.16674 23.3438 6.66674 23.3438H18.3334C19.823 23.3438 21.2501 22.1355 21.5001 20.6667L22.8855 12.375C23.0522 11.3542 22.5313 9.98963 21.7292 9.3438L14.5105 3.57296C13.3959 2.67713 11.5938 2.67713 10.4897 3.56255Z" fill="url(#paint0_linear_774_1431)"/>
<path d="M12.5007 16.7708C13.1913 16.7708 13.8537 16.4965 14.3421 16.0081C14.8305 15.5197 15.1048 14.8573 15.1048 14.1667C15.1048 13.476 14.8305 12.8136 14.3421 12.3252C13.8537 11.8369 13.1913 11.5625 12.5007 11.5625C11.81 11.5625 11.1476 11.8369 10.6592 12.3252C10.1709 12.8136 9.89648 13.476 9.89648 14.1667C9.89648 14.8573 10.1709 15.5197 10.6592 16.0081C11.1476 16.4965 11.81 16.7708 12.5007 16.7708Z" fill="white"/>
<defs>
<linearGradient id="paint0_linear_774_1431" x1="12.4983" y1="2.89978" x2="12.4983" y2="23.3438" gradientUnits="userSpaceOnUse">
<stop stopColor="#14D3DB"/>
<stop offset="1" stopColor="#0057FF"/>
</linearGradient>
</defs>
</svg>
