<svg width="160" height="199" viewBox="0 0 160 199" fill="none" xmlns="http://www.w3.org/2000/svg">
<path d="M153.6 0C130.6 0 111.9 18.7 111.9 41.7V122.4C111.9 139.9 97.7 154.2 80.1 154.3H79C62.1 154.3 48.3 140.5 48.3 123.6V122.5C48.3 105 62.6 90 80.1 89.9C82.5 89.9 84.6 89.4 85.3 87.1C86.5 83.3 83.7 79.8 80.1 79.8C67.5 79.8 56.2 85.3 48.3 93.9V42.5C48.3 19.1 29.3 0.0999908 5.79999 0.0999908H0V120.9C0 162.5 34 198 75.6 198.6C122 199.3 160 161.7 160 115.4V0H153.6ZM122.9 41.7C122.9 26.3 134.3 13.5 149.1 11.3V62.1C138.8 63.2 129.5 68.1 122.9 75.4V41.7ZM11.2 11.5C26.1 14 37.4 26.9 37.4 42.5V75.9C30.7 68.5 21.5 63.5 11.2 62.3V11.5ZM11.2 121.7V73.4C26.1 75.9 37.4 88.8 37.4 104.4V174.3C21.5 162.3 11.2 143.2 11.2 121.7ZM49.4 181.4V151.5C56.2 159.7 67.5 165.2 80 165.3H80.2C92.8 165.2 104.1 159.7 111.9 151V178.5C101.5 184.3 89.6 187.5 77 187.5C66.8 187.5 57.1 185.2 49.4 181.4ZM149.2 115.4C149.2 137.8 139 157.8 123 171V103.6C123 88.2 134.4 75.4 149.2 73.2V115.4Z" fill="white"/>
<path d="M122.9 36.9V121.9C122.9 133.4 118.4 144.3 110.3 152.5C102.4 160.5 91.9 165 80.7 165.2C80.5 165.2 80.4 165.2 80.2 165.2C80 165.2 79.9 165.2 79.7 165.2C68.5 165 58.1 160.5 50.1 152.5C42 144.3 37.5 133.5 37.5 121.9C37.5 110.3 42 99.6 50.1 91.6C58.2 83.7 69 79.3 80.5 79.3C82 79.3 83.4 79.9 84.4 80.9C85.4 81.9 86 83.3 86 84.8C86 87.8 83.5 90.3 80.5 90.3C76.2 90.3 72 91.1 68.2 92.7C64.4 94.2 60.9 96.5 57.9 99.5C51.9 105.4 48.6 113.4 48.6 122C48.6 130.6 51.9 138.8 58 144.8C64 150.8 71.8 154.2 80.2 154.2C84.4 154.2 88.4 153.3 92.1 151.8C95.9 150.2 99.4 147.8 102.5 144.8C108.5 138.7 111.9 130.6 111.9 122V37C111.9 34 114.4 31.5 117.4 31.5C120.4 31.5 122.9 33.8 122.9 36.9Z" fill="url(#paint0_linear_1070_3)"/>
<defs>
<linearGradient id="paint0_linear_1070_3" x1="115" y1="36" x2="50" y2="139" gradientUnits="userSpaceOnUse">
<stop stop-color="#14D3DB"/>
<stop offset="1" stop-color="#0057FF"/>
</linearGradient>
</defs>
</svg>
